<svg xmlns="http://www.w3.org/2000/svg" version="1.1" xmlns:xlink="http://www.w3.org/1999/xlink" width="512" height="512" x="0" y="0" viewBox="0 0 512 512" style="enable-background:new 0 0 512 512" xml:space="preserve" class=""><g><path fill="#60542d" d="m336.8 246.762-118.129-68.2a10.667 10.667 0 0 0-16 9.238v136.4a10.667 10.667 0 0 0 16 9.238l118.129-68.2a10.667 10.667 0 0 0 0-18.476z" opacity="0" data-original="#2d4a60" class=""></path><path d="M446.522 231.962A192.121 192.121 0 0 0 260.617 63.97l24.595-24.4a10.666 10.666 0 1 0-15.023-15.146l-44.4 44.045a10.666 10.666 0 0 0-.061 15.084l44.4 44.769a10.666 10.666 0 1 0 15.146-15.022l-27.8-28.027A170.786 170.786 0 0 1 413.7 321.419a171.9 171.9 0 0 1-51.04 67.9 10.667 10.667 0 0 0 13.346 16.643 191.945 191.945 0 0 0 70.514-174zM241.874 383.675a10.667 10.667 0 0 0-15.148 15.025l27.8 28.028A170.785 170.785 0 0 1 98.288 190.605a171.89 171.89 0 0 1 51.01-67.89 10.667 10.667 0 0 0-13.35-16.64 191.946 191.946 0 0 0-70.471 173.964 192.125 192.125 0 0 0 185.9 167.992l-24.594 24.4a10.667 10.667 0 0 0 15.025 15.146l44.4-44.045a10.668 10.668 0 0 0 .062-15.084z" fill="#000000" opacity="1" data-original="#000000" class=""></path><path d="M342.13 237.525 224 169.323a21.333 21.333 0 0 0-32 18.477v136.4a21.286 21.286 0 0 0 32 18.475l118.13-68.2a21.333 21.333 0 0 0 0-36.95zM213.333 324.2V187.8l118.13 68.2z" fill="#000000" opacity="1" data-original="#000000" class=""></path></g></svg>