<?xml version="1.0" encoding="UTF-8"?>
<svg version="1.1" viewBox="0 0 900 900" width="1280" height="1280" xmlns="http://www.w3.org/2000/svg">
<path transform="translate(161,207)" d="m0 0 5 2 18 14 36 27 13 10 20 15 21 16 16 12 13 10 19 14 43 29 44 29 42 28 4-1 33-22 44-29 43-29 12-8 16-12 114-84 16-12 9-6-1 8-8 30-11 44-16 59-15 56v6l15 27 13 23 15 27 13 23 14 24v2l-4 1-6-1 3 6 2 15 3 10-16-3-13-1-7-2h-14l-9 5-6 13-1-4 3-10-4 2-3 8-2 11 2 5 2-7h1l-1 9-6 21-3-3-4-12 1-3 1 3 2 1 1-13h-5v3h-2l-1-5-10 6-12 9-13 10-15 12-20 15-15 12-19 14-15 13-25 20-8 7-14 12-10 8-17 13-16 13-11 7-7-1-16-12-16-13-13-10-18-14-13-11-10-8-18-14-15-12-13-10-18-14-20-15-14-12-14-11-10-7-6-3h-3l-4 7-3 8-1 8-3-1-5-11-2-13v-3l6 2-4-13-2-6h-2v8h-3l-5-9-6-5-8 1-16 4-20 6-12 4 1-4 3-11 2-12 2-4h-9l-1-2 11-19 15-27 13-23 25-45 11-20-1-7-23-86-12-43-14-59zm147 295-3 9-5 9-2 1 1 4 7 11 13 18 11 16 4 2 59-11 12-2 2-2-18-11-23-13-23-12-16-10-15-9zm203 46-14 8-1 3 19 3 50 9h6v-9l-10-4-27-6-14-4zm169 39m7 9m-2 4 1 2zm-1 3-1 6 2-1v-5zm0 6 1 2zm-1 2 1 3z" fill="#E41E28"/>
<path transform="translate(739,217)" d="m0 0 1 4-15 59-12 45-20 74-2 8v6l15 27 13 23 15 27 13 23 14 24v2l-4 1-6-1 3 6 2 15 3 10-16-3-13-1-7-2h-14l-9 5-6 13-1-4 3-10-4 2-5 12-2 3-3-1-9-26-5 3-18 14-10 8-14 11-9 7-14 11-3 1v2l-26 20-16 13-27 21-14 11-16 13-9 7-13 10-10 8-15 11-6-1-9-8-16-12-16-13-13-10-15-12-42-33-18-14-16-13-14-11-13-10-28-22v-2l5 2 4 3 18 2h3v2h6l9 4 4 2 6 2 7 2 1 2 12 5 10 4 11 4 11 5 10 4 10 3v2l5 1 6 2v2l8 1 6 4 25 10 17 6 6 2 7-3 6-7 4-6h2l3-6h2l2-6 1-2h2l1-4h2l2-5 7-12 6-10 6-12 3-8-5-1-1-3h7l60 11h6l8-10 10-14 9-12 13-19 10-13 9-13 10-14-12 6-22 13-26 15-28 16-22 13-3-1 5-5 6-2v-6l3-4 3-12 3-5 3-6h2l1-4 7-8 4-7 2-1 4-7 7-9 5-9 12-16 3-6h2l2-5 7-11 5-6 4-7 1-3 5-5 7-12 5-8h2l1-4 4-7 3-3 5-9 6-9 6-11 2-4h2l2-4 10-15 6-8 3-5h2l2-7 3-4 5-6 6-12 3-3 6-9h2l2-8 4-2 5-10v-2h5l-1-6 5-2z" fill="#B91B30"/>
<path transform="translate(231,557)" d="m0 0 5 2 9 8 13 10 14 11 18 14 16 13 14 11 13 10 15 12 13 10 16 13 13 10 18 14 16 13 16 12 10 8 5-1 14-10 12-10 12-9 15-12 14-11 15-12 13-10 15-12 14-11 18-14 3-1v-2l13-10 9-7 14-11 16-13 16-12 5-3 3 6 7 21 2 1 2-5 1 3-1 8 2 3 2-7h1l-1 9-6 21-3-3-4-12 1-3 1 3 2 1 1-13h-5v3h-2l-1-5-10 6-12 9-13 10-15 12-20 15-15 12-19 14-15 13-25 20-8 7-14 12-10 8-17 13-16 13-11 7-7-1-16-12-16-13-13-10-18-14-13-11-10-8-18-14-15-12-13-10-18-14-20-15-14-12-14-11-10-7-6-3h-3l-4 7-3 8-1 8-3-1-5-11-2-13v-3l6 2v-5h2l8-21zm449 30m7 9m-2 4 1 2zm-1 3-1 6 2-1v-5zm0 6 1 2zm-1 2 1 3z" fill="#FDFDFD"/>
<path transform="translate(165,216)" d="m0 0 3 4 2 11h2l-1-5 4 4 5 6 4 3v2h2l4 5 2 8 8 20 16 32 8 14v3h2l8 16 4 7 1 4v11l-3 8-5 12-2 5h-2l-1 5-5 10-2 7h-2l-1 3-3-6-23-86-12-43-13-55z" fill="#BA1C31"/>
<path transform="translate(639,474)" d="m0 0 2 1-20 28-13 18-7 10-8 11-12 16-7 10h-2l-1 2-1-8-14-4-25-6-15-4 5-6 16-9 17-10 21-12 52-30z" fill="#FDFDFD"/>
<path transform="translate(201,530)" d="m0 0 3 3 10 33 1 8-2-4h-2v8h-3l-5-9-6-5-8 1-16 4-20 6-12 4 1-4 3-11 2-12 2-4-2-2 41-12z" fill="#FDFDFD"/>
<path transform="translate(702,531)" d="m0 0 11 1 34 5 4 2 3 6 2 15 3 10-16-3-13-1-7-2h-14l-9 5-6 13-1-4 3-10-4 2-3 4 2-10 9-29z" fill="#FDFDFD"/>
<path transform="translate(263,475)" d="m0 0 6 2 42 24-3 1-1 7-6 11-3 1-1 3-7-10-13-18-9-13-5-6z" fill="#FDFDFD"/>
<path transform="translate(335,520)" d="m0 0 8 4 5 4v2l2 1-7-1-8-6z" fill="#FDFDFD"/>
<path transform="translate(165,216)" d="m0 0 3 4 1 9-2 1-2-9z" fill="#C01B2F"/>
<path transform="translate(688,574)" d="m0 0 1 4-4 7-3-1 1-2z" fill="#E62E37"/>
<path transform="translate(677,595)" d="m0 0 2 3h-2z" fill="#FDFDFD"/>
<path transform="translate(213,584)" d="m0 0 2 2h-2z" fill="#FDFDFD"/>
<path transform="translate(212,582)" d="m0 0" fill="#FDFDFD"/>
<path transform="translate(679,595)" d="m0 0" fill="#FDFDFD"/>
<path transform="translate(692,583)" d="m0 0" fill="#FDFDFD"/>
<path transform="translate(211,581)" d="m0 0" fill="#FDFDFD"/>
</svg>
